<svg id="Component_58_1" data-name="Component 58 – 1" xmlns="http://www.w3.org/2000/svg" width="15" height="15">
    <defs>
        <style>
            .cls-1{fill:#f88960}
        </style>
    </defs>
    <path id="Path_50" data-name="Path 50" class="cls-1" d="M24 2h-8.75A1.254 1.254 0 0 0 14 3.25v.781a.481.481 0 0 0 .469.469h5.781a2.507 2.507 0 0 1 2.5 2.5v5.781a.481.481 0 0 0 .469.469H24A1.254 1.254 0 0 0 25.25 12V3.25A1.254 1.254 0 0 0 24 2z" transform="translate(-10.25 -2)"/>
    <path id="Path_51" data-name="Path 51" class="cls-1" d="M12 14H3.25A1.254 1.254 0 0 0 2 15.25V24a1.254 1.254 0 0 0 1.25 1.25H12A1.254 1.254 0 0 0 13.25 24v-8.75A1.254 1.254 0 0 0 12 14zm-1.25 8.438a.3.3 0 0 1-.312.313H4.813a.3.3 0 0 1-.312-.312v-.625a.3.3 0 0 1 .313-.312h5.625a.3.3 0 0 1 .313.313zm0-2.5a.3.3 0 0 1-.312.313H4.813a.3.3 0 0 1-.312-.312v-.625A.3.3 0 0 1 4.813 19h5.625a.3.3 0 0 1 .313.313zm0-2.5a.3.3 0 0 1-.312.313H4.813a.3.3 0 0 1-.312-.312v-.625a.3.3 0 0 1 .313-.312h5.625a.3.3 0 0 1 .313.313z" transform="translate(-2 -10.25)"/>
</svg>
