<svg id="Component_57_1" data-name="Component 57 – 1" xmlns="http://www.w3.org/2000/svg" width="14.875" height="17">
    <defs>
        <style>
            .cls-1{fill:#e9696e}
        </style>
    </defs>
    <path id="Path_52" data-name="Path 52" class="cls-1" d="M19.344 4.833h-4.427V3.417A1.421 1.421 0 0 0 13.5 2h-2.125a1.421 1.421 0 0 0-1.417 1.417v1.416H5.531A.545.545 0 0 0 5 5.365v1.062a.545.545 0 0 0 .531.531h13.813a.545.545 0 0 0 .531-.531V5.365a.545.545 0 0 0-.531-.532zm-7.969-1.062a.335.335 0 0 1 .354-.354h1.417a.335.335 0 0 1 .354.354v1.062h-2.125z" transform="translate(-5 -2)"/>
    <path id="Path_53" data-name="Path 53" class="cls-1" d="M20.511 20H9.531a.545.545 0 0 0-.531.531v8.323a1.754 1.754 0 0 0 1.771 1.771h8.5a1.754 1.754 0 0 0 1.771-1.771v-8.323a.545.545 0 0 0-.531-.531zm-6.552 7.792a.335.335 0 0 1-.354.354H12.9a.335.335 0 0 1-.354-.354v-4.959a.335.335 0 0 1 .354-.354h.7a.335.335 0 0 1 .354.354zm3.542 0a.335.335 0 0 1-.354.354h-.708a.335.335 0 0 1-.354-.354v-4.959a.335.335 0 0 1 .354-.354h.708a.335.335 0 0 1 .354.354z" transform="translate(-7.583 -13.625)"/>
</svg>
